<svg xmlns="http://www.w3.org/2000/svg" version="1.1" xmlns:xlink="http://www.w3.org/1999/xlink" xmlns:svgjs="http://svgjs.dev/svgjs" width="2000" height="1500" viewBox="0 0 2000 1500"><rect width="2000" height="1500" fill="#ffffff"></rect><g transform="matrix(0.75,0,0,0.75,249.090909090909,603.4026945518775)"><svg viewBox="0 0 396 78" data-background-color="#ffffff" preserveAspectRatio="xMidYMid meet" height="393" width="2000" xmlns="http://www.w3.org/2000/svg" xmlns:xlink="http://www.w3.org/1999/xlink"><defs></defs><g id="tight-bounds" transform="matrix(1,0,0,1,0.2400000000000091,-0.20580212059863356)"><svg viewBox="0 0 395.52 78.41160424119724" height="78.41160424119724" width="395.52"><g><svg viewBox="0 0 515.0769684817583 102.11370197802198" height="78.41160424119724" width="395.52"><g transform="matrix(1,0,0,1,119.55696848175825,14.112675164835167)"><svg viewBox="0 0 395.52 73.88835164835164" height="73.88835164835164" width="395.52"><g><svg viewBox="0 0 395.52 73.88835164835164" height="73.88835164835164" width="395.52"><g><svg viewBox="0 0 395.52 73.88835164835164" height="73.88835164835164" width="395.52"><g transform="matrix(1,0,0,1,0,0)"><svg width="395.52" viewBox="4.909999847412109 -36.25 244.36000061035156 45.650001525878906" height="73.88835164835164" data-palette-color="#50a060"><path d="M33.4-18.19L33.4-18.19Q33.4-9.35 28.6-4.68 23.8 0 14.79 0L14.79 0 4.91 0 4.91-35.69 15.84-35.69Q24.17-35.69 28.78-31.08 33.4-26.46 33.4-18.19ZM29-18.04L29-18.04Q29-25.02 25.5-28.56 22-32.1 15.09-32.1L15.09-32.1 9.06-32.1 9.06-3.59 14.11-3.59Q21.53-3.59 25.27-7.24 29-10.89 29-18.04ZM76.97-25.29L76.97-25.29Q76.97-19.87 73.27-16.96 69.58-14.04 62.69-14.04L62.69-14.04 58.49-14.04 58.49 0 54.34 0 54.34-35.69 63.59-35.69Q76.97-35.69 76.97-25.29ZM58.49-32.1L58.49-17.6 62.23-17.6Q67.74-17.6 70.21-19.38 72.68-21.17 72.68-25.1L72.68-25.1Q72.68-28.64 70.36-30.37 68.04-32.1 63.13-32.1L63.13-32.1 58.49-32.1ZM96.04-14.84L88.59-14.84 88.59 0 84.44 0 84.44-35.69 94.23-35.69Q100.8-35.69 103.94-33.18 107.07-30.66 107.07-25.61L107.07-25.61Q107.07-18.53 99.89-16.04L99.89-16.04 109.59 0 104.68 0 96.04-14.84ZM88.59-32.06L88.59-18.41 94.28-18.41Q98.67-18.41 100.72-20.15 102.78-21.9 102.78-25.39L102.78-25.39Q102.78-28.93 100.69-30.49 98.6-32.06 93.99-32.06L93.99-32.06 88.59-32.06ZM146.33-17.9L146.33-17.9Q146.33-9.33 141.99-4.42 137.66 0.49 129.95 0.49L129.95 0.49Q122.06 0.49 117.78-4.33 113.49-9.16 113.49-17.94L113.49-17.94Q113.49-26.66 117.79-31.46 122.08-36.25 129.99-36.25L129.99-36.25Q137.69-36.25 142.01-31.37 146.33-26.49 146.33-17.9ZM117.89-17.9L117.89-17.9Q117.89-10.64 120.97-6.9 124.06-3.15 129.95-3.15L129.95-3.15Q135.88-3.15 138.91-6.88 141.93-10.62 141.93-17.9L141.93-17.9Q141.93-25.1 138.92-28.82 135.9-32.54 129.99-32.54L129.99-32.54Q124.06-32.54 120.97-28.8 117.89-25.05 117.89-17.9ZM149.08 9.4L149.08 9.4Q146.79 9.4 145.47 8.74L145.47 8.74 145.47 5.2Q147.2 5.69 149.08 5.69L149.08 5.69Q151.5 5.69 152.76 4.22 154.02 2.76 154.02 0L154.02 0 154.02-35.69 158.17-35.69 158.17-0.34Q158.17 4.3 155.82 6.85 153.48 9.4 149.08 9.4ZM187.53-3.71L187.53 0 167.64 0 167.64-35.69 187.53-35.69 187.53-32.01 171.79-32.01 171.79-20.51 186.58-20.51 186.58-16.85 171.79-16.85 171.79-3.71 187.53-3.71ZM210.72-32.5L210.72-32.5Q204.84-32.5 201.44-28.58 198.03-24.66 198.03-17.85L198.03-17.85Q198.03-10.84 201.31-7.02 204.6-3.2 210.68-3.2L210.68-3.2Q214.41-3.2 219.2-4.54L219.2-4.54 219.2-0.9Q215.49 0.49 210.04 0.49L210.04 0.49Q202.16 0.49 197.87-4.3 193.59-9.08 193.59-17.9L193.59-17.9Q193.59-23.41 195.65-27.56 197.71-31.71 201.61-33.96 205.5-36.21 210.77-36.21L210.77-36.21Q216.39-36.21 220.59-34.16L220.59-34.16 218.83-30.59Q214.78-32.5 210.72-32.5ZM237.97-32.01L237.97 0 233.82 0 233.82-32.01 222.51-32.01 222.51-35.69 249.27-35.69 249.27-32.01 237.97-32.01Z" opacity="1" transform="matrix(1,0,0,1,0,0)" fill="#50a060" class="undefined-text-0" data-fill-palette-color="primary" id="text-0"></path></svg></g></svg></g></svg></g></svg></g><g><svg viewBox="0 0 102.11370197802198 102.11370197802198" height="102.11370197802198" width="102.11370197802198"><g><svg xmlns="http://www.w3.org/2000/svg" xmlns:xlink="http://www.w3.org/1999/xlink" version="1.1" x="0" y="0" viewBox="10 10 80 80" enable-background="new 0 0 100 100" xml:space="preserve" height="102.11370197802198" width="102.11370197802198" class="icon-icon-0" data-fill-palette-color="accent" id="icon-0"><path d="M10 10v80h80V10H10zM80 44.996l-25-0.013V20h25V44.996zM20 20h25v60H20V20zM55 80V54.984l25 0.012V80H55z" fill="#50a060" data-fill-palette-color="accent"></path></svg></g></svg></g></svg></g></svg><rect width="395.52" height="78.41160424119724" fill="none" stroke="none" visibility="hidden"></rect></g></svg></g></svg>